<svg version="1.1" xmlns="http://www.w3.org/2000/svg" xmlns:xlink="http://www.w3.org/1999/xlink" width="89.09723" height="103.5129" viewBox="0,0,89.09723,103.5129"><defs><linearGradient x1="229.02353" y1="166.33592" x2="229.02353" y2="195.16683" gradientUnits="userSpaceOnUse" id="color-1"><stop offset="0" stop-color="#ffffff"/><stop offset="1" stop-color="#f5f5f5"/></linearGradient><linearGradient x1="237.36188" y1="193.75355" x2="237.36188" y2="215.80547" gradientUnits="userSpaceOnUse" id="color-2"><stop offset="0" stop-color="#ffffff"/><stop offset="1" stop-color="#f5f5f5"/></linearGradient><linearGradient x1="242.63812" y1="144.19453" x2="242.63812" y2="166.24645" gradientUnits="userSpaceOnUse" id="color-3"><stop offset="0" stop-color="#ffffff"/><stop offset="1" stop-color="#f5f5f5"/></linearGradient></defs><g transform="translate(-206.04167,-142.69453)"><g data-paper-data="{&quot;isPaintingLayer&quot;:true}" fill-rule="nonzero" stroke-linejoin="miter" stroke-miterlimit="10" stroke-dasharray="" stroke-dashoffset="0" style="mix-blend-mode: normal"><path d="M218.2826,195.16683l4.5225,-28.83091h16.95936l-4.5225,28.83091z" fill="url(#color-1)" stroke="#000000" stroke-width="3" stroke-linecap="round"/><path d="M241.97595,145.52254c0,0 6.05827,18.75147 6.64065,28.29011c0.58235,9.5381 -3.14646,28.94007 -3.14646,28.94007" fill="none" stroke="#000000" stroke-width="0" stroke-linecap="round"/><path d="M207.54167,215.80547v-22.05192h59.64042v22.05192z" fill="url(#color-2)" stroke="#000000" stroke-width="3" stroke-linecap="butt"/><path d="M212.81791,166.24645v-22.05192h59.64042v22.05192z" fill="url(#color-3)" stroke="#000000" stroke-width="3" stroke-linecap="butt"/><path d="M255.5005,144.49494v19.78592" fill="none" stroke="#000000" stroke-width="3" stroke-linecap="round"/><path d="M263.62844,150.52494c0,-1.56106 1.09676,-2.82656 2.44969,-2.82656c1.35292,0 2.44969,1.2655 2.44969,2.82656c0,1.56106 -1.09676,2.82656 -2.44969,2.82656c-1.35292,0 -2.44969,-1.2655 -2.44969,-2.82656z" fill="#ff0000" stroke="none" stroke-width="0.5" stroke-linecap="butt"/><path d="M258.89238,156.3665c0,-3.12213 2.19352,-5.65312 4.89937,-5.65312c2.70585,0 4.89937,2.53099 4.89937,5.65312c0,3.12213 -2.19352,5.65312 -4.89937,5.65312c-2.70585,0 -4.89937,-2.53099 -4.89937,-5.65312z" fill="#000000" stroke="none" stroke-width="0.5" stroke-linecap="butt"/><path d="M273.24449,244.43966l-26.35553,-26.35553c0,0 -3.59195,-13.26364 1.48619,-18.34178c5.07814,-5.07814 18.64045,-1.78487 18.64045,-1.78487l26.35553,26.35553zM256.29172,208.12071c1.26179,-1.26179 1.26179,-3.30755 0,-4.56934c-1.26179,-1.26179 -3.30755,-1.26179 -4.56934,0c-1.26179,1.26179 -1.26179,3.30755 0,4.56934c1.26179,1.26179 3.30755,1.26179 4.56934,0z" fill="#ffc500" stroke="#000000" stroke-width="2.5" stroke-linecap="butt"/><text transform="translate(252.51839,214.47846) rotate(45) scale(0.5,0.5)" font-size="40" xml:space="preserve" fill="#000000" fill-rule="nonzero" stroke="none" stroke-width="1" stroke-linecap="butt" stroke-linejoin="miter" stroke-miterlimit="10" stroke-dasharray="" stroke-dashoffset="0" font-family="Sans Serif" font-weight="normal" text-anchor="start" style="mix-blend-mode: normal"><tspan x="0" dy="0">100</tspan></text></g></g></svg>