<svg version="1.1" xmlns="http://www.w3.org/2000/svg" xmlns:xlink="http://www.w3.org/1999/xlink" width="66.35381" height="33.82459" viewBox="0,0,66.35381,33.82459"><g transform="translate(-207.16698,-163.0877)"><g data-paper-data="{&quot;isPaintingLayer&quot;:true}" fill-rule="nonzero" stroke="#000000" stroke-linecap="butt" stroke-linejoin="miter" stroke-miterlimit="10" stroke-dasharray="" stroke-dashoffset="0" style="mix-blend-mode: normal"><path d="M226.89227,188.21148v-16.42294h5.93014l4.16793,2.44327l5.17399,-2.44327l6.89865,2.587l8.33588,-2.587l5.02339,1.43722l8.91076,6.53582l-9.54316,6.29408l-7.47355,2.15583l-3.8805,-2.587l-3.88049,2.58699l-6.61122,-3.16188l-6.03632,3.16188z" fill="#d8d8d8" stroke-width="2.5"/><path d="M208.66698,180c0,-8.51198 6.90032,-15.4123 15.4123,-15.4123c8.51198,0 8.51198,30.82459 0,30.82459c-8.51198,0 -15.4123,-6.90032 -15.4123,-15.4123zM215.86321,182.11783c1.38071,0 2.5,-1.11929 2.5,-2.5c0,-1.38071 -1.11929,-2.5 -2.5,-2.5c-1.38071,0 -2.5,1.11929 -2.5,2.5c0,1.38071 1.11929,2.5 2.5,2.5z" fill="#3faffd" stroke-width="3"/></g></g></svg>