<svg version="1.1" xmlns="http://www.w3.org/2000/svg" xmlns:xlink="http://www.w3.org/1999/xlink" width="80.4837" height="95.73652" viewBox="0,0,80.4837,95.73652"><defs><linearGradient x1="217.33877" y1="172.8623" x2="217.33877" y2="201.69321" gradientUnits="userSpaceOnUse" id="color-1"><stop offset="0" stop-color="#6a6a6a"/><stop offset="1" stop-color="#bbbbbb"/></linearGradient><linearGradient x1="215.17712" y1="200.27993" x2="215.17712" y2="209.08185" gradientUnits="userSpaceOnUse" id="color-2"><stop offset="0" stop-color="#6a6a6a"/><stop offset="1" stop-color="#bbbbbb"/></linearGradient><linearGradient x1="230.95336" y1="150.7209" x2="230.95336" y2="172.77283" gradientUnits="userSpaceOnUse" id="color-3"><stop offset="0" stop-color="#6a6a6a"/><stop offset="1" stop-color="#bbbbbb"/></linearGradient></defs><g transform="translate(-199.63315,-149.22091)"><g data-paper-data="{&quot;isPaintingLayer&quot;:true}" fill-rule="nonzero" stroke-linejoin="miter" stroke-miterlimit="10" stroke-dasharray="" stroke-dashoffset="0" style="mix-blend-mode: normal"><path d="M206.59784,201.69321l4.5225,-28.83091h16.95936l-4.5225,28.83091z" fill="url(#color-1)" stroke="#000000" stroke-width="3" stroke-linecap="round"/><path d="M204.60691,209.08185v-8.80192h21.14042v8.80192z" fill="url(#color-2)" stroke="#000000" stroke-width="3" stroke-linecap="butt"/><path d="M201.13315,172.77283v-22.05192h59.64042v22.05192z" fill="url(#color-3)" stroke="#000000" stroke-width="3" stroke-linecap="butt"/><path d="M243.81574,151.02132v19.78592" fill="none" stroke="#000000" stroke-width="3" stroke-linecap="round"/><path d="M249.69368,161.52246c0,-1.95934 1.37658,-3.54771 3.07469,-3.54771c1.6981,0 3.07469,1.58837 3.07469,3.54771c0,1.95934 -1.37658,3.54771 -3.07469,3.54771c-1.6981,0 -3.07469,-1.58837 -3.07469,-3.54771z" fill="#ff0000" stroke="#000000" stroke-width="1.5" stroke-linecap="butt"/><path d="M239.49449,243.18966l-26.35553,-26.35553c0,0 -3.59195,-13.26364 1.48619,-18.34178c5.07814,-5.07814 18.64045,-1.78487 18.64045,-1.78487l26.35553,26.35553zM222.54172,206.87071c1.26179,-1.26179 1.26179,-3.30755 0,-4.56934c-1.26179,-1.26179 -3.30755,-1.26179 -4.56934,0c-1.26179,1.26179 -1.26179,3.30755 0,4.56934c1.26179,1.26179 3.30755,1.26179 4.56934,0z" fill="#ffc500" stroke="#000000" stroke-width="2.5" stroke-linecap="butt"/><text transform="translate(218.76839,213.22846) rotate(45) scale(0.5,0.5)" font-size="40" xml:space="preserve" fill="#000000" fill-rule="nonzero" stroke="none" stroke-width="1" stroke-linecap="butt" stroke-linejoin="miter" stroke-miterlimit="10" stroke-dasharray="" stroke-dashoffset="0" font-family="Sans Serif" font-weight="normal" text-anchor="start" style="mix-blend-mode: normal"><tspan x="0" dy="0">250</tspan></text><path d="M252.86685,161.31114l26,13" fill="none" stroke="#ff0000" stroke-width="2.5" stroke-linecap="round"/></g></g></svg>