<svg version="1.1" xmlns="http://www.w3.org/2000/svg" xmlns:xlink="http://www.w3.org/1999/xlink" width="82.36085" height="135.9542" viewBox="0,0,82.36085,135.9542"><g transform="translate(-198.81958,-109.99569)"><g data-paper-data="{&quot;isPaintingLayer&quot;:true}" fill-rule="nonzero" stroke-linejoin="miter" stroke-miterlimit="10" stroke-dasharray="" stroke-dashoffset="0" style="mix-blend-mode: normal"><path d="M249.98719,231.35674c0,0 5.81576,7.64823 4.91019,10.86564c-0.34925,1.24086 -7.78666,0.84658 -8.52716,0.77412c-0.7405,-0.07246 -1.3144,-0.43023 -1.67336,-0.87718c-0.35896,-0.44695 -0.16062,-0.54974 -0.19788,-1.45277c-0.17125,-4.15055 -5.34758,-9.30981 -5.34758,-9.30981h-10.12393c0,0 -5.46554,9.61033 -5.92388,12.55434c-0.04978,0.31971 -0.51681,0.70273 -2.16018,1.03881c-1.64337,0.33608 -2.17265,0.3811 -4.2818,0.27861c-1.76268,-0.08565 -3.76871,-0.64532 -4.16909,-0.75434c-0.87947,-0.23948 -0.95223,-1.44139 -0.9935,-2.09592c-0.38676,-6.13423 6.32249,-11.02151 6.32249,-11.02151l0.45139,-4.71429h31.71429v4.71429z" data-paper-data="{&quot;index&quot;:null}" fill="#28003e" stroke="#000000" stroke-width="2" stroke-linecap="butt"/><path d="M218.92315,229.02554c0,0 -0.57143,-1.52749 -0.57143,-2.71001c0,-5.75003 0.57143,-49.99268 0.57143,-49.99268h30.56757c0,0 0.42857,45.82346 0.42857,50.70697c0,0.81389 0.12865,1.42204 -0.42857,1.99573c-0.55722,0.57369 -0.56457,0.44767 -1.97503,0.47888c-6.30503,0.13952 -24.08941,0.09255 -26.86448,0.09255c-0.71555,0 -1.72806,-0.57143 -1.72806,-0.57143z" data-paper-data="{&quot;index&quot;:null}" fill="#440000" stroke="#000000" stroke-width="2" stroke-linecap="butt"/><path d="M232.74519,204.04666c0,0 -7.337,-11.53507 -8.65162,-13.60189c-0.3881,-0.61016 -0.14024,-1.5758 0.43556,-1.94206c1.11944,-0.71203 5.09284,-3.23935 7.13107,-4.5358c0.7405,-0.47101 1.73071,0.01458 2.227,0.79483c1.43774,2.26037 8.40422,13.21292 8.40422,13.21292z" data-paper-data="{&quot;index&quot;:null}" fill="#440000" stroke="#000000" stroke-width="2" stroke-linecap="butt"/><path d="M242.53469,198.35711c0,0 0.28648,0.45041 1.72422,2.71078c0.49628,0.78026 0.51632,1.88293 -0.22419,2.35394c-2.03825,1.29645 -6.01164,3.82378 -7.13107,4.5358c-0.5758,0.36625 -1.55546,0.18136 -1.94356,-0.42878c-1.31462,-2.06683 -1.97163,-3.09975 -1.97163,-3.09975z" data-paper-data="{&quot;index&quot;:null}" fill="#ffd38a" stroke="#000000" stroke-width="2" stroke-linecap="butt"/><path d="M267.27589,174.67571c-1.58828,1.6027 -2.93234,2.18097 -5.23216,2.30248c-11.53024,0.60915 -45.3223,0.33265 -53.79487,0.33265c-3.62551,0 -4.52493,-0.72327 -6.32433,-2.63513c-1.79939,-1.91185 -2.1081,-3.63344 -2.1081,-6.32432c0,-6.60889 -1.4467,-35.01693 -0.85446,-48.50087c0.19654,-4.47479 0.44956,-5.2228 2.53399,-7.12269c2.08443,-1.8999 4.33414,-1.8224 7.27992,-1.8224c7.42847,0 38.85407,-1.33015 52.14186,-0.77366c3.60091,0.15081 4.45787,0.93654 6.35814,2.88178c1.90028,1.94525 2.63514,3.17333 2.63514,6.32432c0,7.70065 0.30941,38.86842 -0.31587,50.02031c-0.13155,2.34618 -0.73099,3.71483 -2.31927,5.31753z" data-paper-data="{&quot;index&quot;:null}" fill="#ffd38a" stroke="none" stroke-width="0" stroke-linecap="butt"/><path d="M266.74885,164.66219c0,0 -3.99004,0.88774 -5.5762,0.30336c-3.46592,-1.27692 -14.45082,-7.68174 -14.45082,-7.68174" data-paper-data="{&quot;index&quot;:null}" fill="none" stroke="#000000" stroke-width="2.5" stroke-linecap="round"/><path d="M245.52015,177.20285h5.05077v5.05077z" data-paper-data="{&quot;index&quot;:null}" fill="#ffffff" stroke="none" stroke-width="0" stroke-linecap="butt"/><path d="M256.48448,137.61436c-0.85958,5.61173 -6.10562,9.46412 -11.71735,8.60454c-5.61173,-0.85958 -9.46412,-6.10562 -8.60454,-11.71735c0.23051,-1.5049 0.77648,-2.88327 1.56035,-4.07818c2.13918,-3.26088 15.07999,-2.72696 16.63489,-0.77777c1.72667,2.16452 2.57893,5.01601 2.12664,7.96875z" data-paper-data="{&quot;index&quot;:null}" fill="#000000" stroke="none" stroke-width="0" stroke-linecap="butt"/><path d="M252.41177,131.87338l13.67004,-0.87733" data-paper-data="{&quot;index&quot;:null}" fill="none" stroke="#000000" stroke-width="3" stroke-linecap="round"/><path d="M281.06049,133.07031c-0.85958,5.61174 -6.10561,9.46412 -11.71735,8.60454c-5.61174,-0.85958 -9.46412,-6.10561 -8.60454,-11.71735c0.85957,-5.61173 18.75288,-5.21467 19.92677,-1.65931c0.49189,1.4898 0.64894,3.11501 0.39511,4.77212z" data-paper-data="{&quot;index&quot;:null}" fill="#000000" stroke="none" stroke-width="0" stroke-linecap="butt"/></g></g></svg>