<svg version="1.1" xmlns="http://www.w3.org/2000/svg" xmlns:xlink="http://www.w3.org/1999/xlink" width="82.36085" height="145.48457" viewBox="0,0,82.36085,145.48457"><g transform="translate(-394.03351,-173.75082)"><g data-paper-data="{&quot;isPaintingLayer&quot;:true}" fill-rule="nonzero" stroke-linejoin="miter" stroke-miterlimit="10" stroke-dasharray="" stroke-dashoffset="0" style="mix-blend-mode: normal"><path d="M461.60177,312.05213c0,3.9672 -8.68333,7.18325 -19.39477,7.18325c-10.71144,0 -19.39477,-3.21605 -19.39477,-7.18325c0,-3.9672 8.68333,-7.18325 19.39477,-7.18325c10.71144,0 19.39477,3.21605 19.39477,7.18325z" fill="#e25959" stroke="#000000" stroke-width="0" stroke-linecap="butt"/><path d="M425.22675,295.11185v-4.71429h31.71429l0.45139,4.71429c0,0 0.52744,9.61455 0.14068,15.74878c-0.04127,0.65453 -0.11403,1.85644 -0.9935,2.09592c-0.40038,0.10902 -2.40641,0.66869 -4.16909,0.75434c-2.10915,0.10249 -2.63843,0.05747 -4.2818,-0.27861c-1.64337,-0.33608 -2.1104,-0.7191 -2.16018,-1.03881c-0.45834,-2.94401 0.25793,-17.28161 0.25793,-17.28161h-10.12393c0,0 0.36913,11.61381 0.19788,15.76436c-0.03726,0.90303 0.16108,1.00582 -0.19788,1.45277c-0.35896,0.44695 -0.93286,0.80472 -1.67336,0.87718c-0.7405,0.07246 -8.17791,0.46674 -8.52716,-0.77412c-0.90557,-3.21741 -0.63527,-17.32019 -0.63527,-17.32019z" data-paper-data="{&quot;index&quot;:null}" fill="#28003e" stroke="#000000" stroke-width="2" stroke-linecap="butt"/><path d="M456.29079,292.78067c0,0 -1.01251,0.57143 -1.72806,0.57143c-2.77507,0 -20.55945,0.04697 -26.86448,-0.09255c-1.41046,-0.03121 -1.41781,0.09481 -1.97503,-0.47888c-0.55722,-0.57369 -0.42857,-1.18184 -0.42857,-1.99573c0,-4.88351 0.42857,-50.70697 0.42857,-50.70697h30.56757c0,0 0.57143,44.24265 0.57143,49.99268c0,1.18252 -0.57143,2.71001 -0.57143,2.71001z" data-paper-data="{&quot;index&quot;:null}" fill="#440000" stroke="#000000" stroke-width="2" stroke-linecap="butt"/><path d="M435.25399,265.71852c0,0 0,-12.98037 0,-15.65925c0,-0.92472 0.5749,-1.86588 1.45251,-1.86588c2.41562,0 7.12468,0 8.45138,0c0.68241,0 1.40981,0.68177 1.40981,1.4049c0,2.44949 0,16.12024 0,16.12024z" fill="#440000" stroke="#000000" stroke-width="2" stroke-linecap="butt"/><path d="M446.56769,266.17178c0,0 0,1.22417 0,3.67366c0,0.72312 -0.7274,1.40489 -1.40981,1.40489c-1.3267,0 -6.03576,0 -8.45138,0c-0.87761,0 -1.45251,-0.94116 -1.45251,-1.86588c0,-2.67888 0,-3.21268 0,-3.21268z" data-paper-data="{&quot;index&quot;:null}" fill="#ffd38a" stroke="#000000" stroke-width="2" stroke-linecap="butt"/><path d="M407.93806,238.43083c-1.58828,-1.6027 -2.18772,-2.97135 -2.31927,-5.31753c-0.62528,-11.15189 -0.31587,-42.31966 -0.31587,-50.02031c0,-3.15099 0.73486,-4.37907 2.63514,-6.32432c1.90027,-1.94524 2.75723,-2.73097 6.35814,-2.88178c13.28779,-0.55649 44.71339,0.77366 52.14186,0.77366c2.94578,0 5.19549,-0.0775 7.27992,1.8224c2.08443,1.89989 2.33745,2.6479 2.53399,7.12269c0.59224,13.48394 -0.85446,41.89198 -0.85446,48.50087c0,2.69088 -0.30871,4.41247 -2.1081,6.32432c-1.7994,1.91186 -2.69882,2.63513 -6.32433,2.63513c-8.47257,0 -42.26463,0.2765 -53.79487,-0.33265c-2.29982,-0.12151 -3.64388,-0.69978 -5.23216,-2.30248z" data-paper-data="{&quot;index&quot;:null}" fill="#ffd38a" stroke="none" stroke-width="0" stroke-linecap="butt"/><path d="M428.49211,221.03893c0,0 -10.9849,6.40482 -14.45082,7.68174c-1.58616,0.58438 -5.5762,-0.30336 -5.5762,-0.30336" data-paper-data="{&quot;index&quot;:null}" fill="none" stroke="#000000" stroke-width="2.5" stroke-linecap="round"/><path d="M424.64302,246.00874v-5.05077h5.05077z" fill="#ffffff" stroke="none" stroke-width="0" stroke-linecap="butt"/><path d="M418.72947,201.36947c-0.45229,-2.95274 0.39997,-5.80423 2.12664,-7.96875c1.5549,-1.94919 14.49571,-2.48311 16.63489,0.77777c0.78387,1.19491 1.32984,2.57328 1.56035,4.07818c0.85958,5.61173 -2.99281,10.85777 -8.60454,11.71735c-5.61173,0.85958 -10.85777,-2.99281 -11.71735,-8.60454z" fill="#000000" stroke="none" stroke-width="0" stroke-linecap="butt"/><path d="M409.13213,194.75117l13.67004,0.87733" fill="none" stroke="#000000" stroke-width="3" stroke-linecap="round"/><path d="M394.15346,196.82543c-0.25383,-1.65711 -0.09678,-3.28232 0.39511,-4.77212c1.17389,-3.55536 19.0672,-3.95242 19.92677,1.65931c0.85958,5.61174 -2.9928,10.85777 -8.60454,11.71735c-5.61174,0.85958 -10.85777,-2.9928 -11.71735,-8.60454z" fill="#000000" stroke="none" stroke-width="0" stroke-linecap="butt"/></g></g></svg>