<svg version="1.1" xmlns="http://www.w3.org/2000/svg" xmlns:xlink="http://www.w3.org/1999/xlink" width="92.89352" height="99.20085" viewBox="0,0,92.89352,99.20085"><g transform="translate(-209.57871,-130.53673)"><g data-paper-data="{&quot;isPaintingLayer&quot;:true}" fill-rule="nonzero" stroke-linejoin="miter" stroke-miterlimit="10" stroke-dasharray="" stroke-dashoffset="0" style="mix-blend-mode: normal"><path d="M268.9878,189.14895c0,21.58805 -12.96339,39.08863 -28.95454,39.08863c-15.99116,0 -28.95455,-17.50058 -28.95455,-39.08863c0,-21.58805 12.96339,-39.08863 28.95455,-39.08863c15.99116,0 28.95454,17.50058 28.95454,39.08863z" fill="#00ff1f" stroke="#000000" stroke-width="3" stroke-linecap="butt"/><path d="M268.45786,189.34551c0,0 -19.11327,4.79616 -28.66952,4.74207c-9.55571,-0.05409 -28.66632,-5.06661 -28.66632,-5.06661" fill="none" stroke="#000000" stroke-width="3" stroke-linecap="round"/><path d="M251.06016,153.26788c0,0 11.65827,14.35147 11.64065,35.29011c0.58235,9.5381 -3.14646,28.94007 -3.14646,28.94007" fill="none" stroke="#000000" stroke-width="3" stroke-linecap="round"/><path d="M245.29694,161.58829c0,0 6.05827,18.75147 6.64065,28.29011c0.58235,9.5381 -3.14646,28.94007 -3.14646,28.94007" fill="none" stroke="#000000" stroke-width="0" stroke-linecap="round"/><path d="M239.75847,150.43643c0,0 9.56263,32.14413 10.14501,41.68277c0.58235,9.5381 -1.3692,33.72402 -1.3692,33.72402" fill="none" stroke="#000000" stroke-width="3" stroke-linecap="round"/><path d="M231.28696,226.46764c0,0 -10.999,-15.78233 -10.49649,-36.17199c0.50251,-20.38966 12.33754,-38.52924 12.33754,-38.52924" data-paper-data="{&quot;index&quot;:null}" fill="none" stroke="#000000" stroke-width="3" stroke-linecap="round"/><path d="M280.57782,210.10633l-26.35553,-26.35553c0,0 -3.59195,-13.26364 1.48619,-18.34178c5.07814,-5.07814 18.64045,-1.78487 18.64045,-1.78487l26.35553,26.35553zM263.62505,173.78738c1.26179,-1.26179 1.26179,-3.30755 0,-4.56934c-1.26179,-1.26179 -3.30755,-1.26179 -4.56934,0c-1.26179,1.26179 -1.26179,3.30755 0,4.56934c1.26179,1.26179 3.30755,1.26179 4.56934,0z" fill="#ffc500" stroke="#000000" stroke-width="2.5" stroke-linecap="butt"/><text transform="translate(265.51838,183.8118) rotate(45) scale(0.5,0.5)" font-size="40" xml:space="preserve" fill="#000000" fill-rule="nonzero" stroke="none" stroke-width="1" stroke-linecap="butt" stroke-linejoin="miter" stroke-miterlimit="10" stroke-dasharray="" stroke-dashoffset="0" font-family="Sans Serif" font-weight="normal" text-anchor="start" style="mix-blend-mode: normal"><tspan x="0" dy="0">10</tspan></text><path d="M231.31839,154.38116v-6.3282c0,0 4.03029,-11.42163 4.63039,-11.42163c0.1247,0 6.53767,-4.73763 11.2932,-4.59128c4.75553,0.14635 13.41524,7.70812 12.84609,7.8423c-0.74665,0.17603 -2.28705,1.71349 -3.79422,1.4999c-3.99614,-0.56634 -5.29671,-3.37032 -9.15468,-3.67022c-3.85797,-0.2999 -4.55982,0.43118 -6.46396,2.45611c-1.90414,2.02493 -3.26014,7.88482 -3.26014,7.88482c0,0 7.62528,0 9.76774,0c1.05052,0 2.34844,1.13194 2.34844,1.89617c0,1.1684 0,4.43203 0,4.43203z" fill="#949494" stroke="#000000" stroke-width="3" stroke-linecap="butt"/></g></g></svg>