<svg version="1.1" xmlns="http://www.w3.org/2000/svg" xmlns:xlink="http://www.w3.org/1999/xlink" width="71.16799" height="140.68147" viewBox="0,0,71.16799,140.68147"><g transform="translate(-204.416,-109.99569)"><g data-paper-data="{&quot;isPaintingLayer&quot;:true}" fill-rule="nonzero" stroke-linejoin="miter" stroke-miterlimit="10" stroke-dasharray="" stroke-dashoffset="0" style="mix-blend-mode: normal"><path d="M255.48042,229.02554c0,0 -1.01251,0.57143 -1.72806,0.57143c-2.77507,0 -20.55945,0.04697 -26.86448,-0.09255c-1.41046,-0.03121 -1.41781,0.09481 -1.97503,-0.47888c-0.55722,-0.57369 -0.42857,-1.18184 -0.42857,-1.99573c0,-4.88351 0.42857,-50.70697 0.42857,-50.70697h30.56757c0,0 0.57143,44.24265 0.57143,49.99268c0,1.18252 -0.57143,2.71001 -0.57143,2.71001z" data-paper-data="{&quot;index&quot;:null}" fill="#4e4e4e" stroke="#000000" stroke-width="2" stroke-linecap="butt"/><path d="M272.87232,174.67571c-1.58828,1.6027 -2.93234,2.18097 -5.23216,2.30248c-11.53024,0.60915 -45.3223,0.33265 -53.79487,0.33265c-3.62551,0 -4.52493,-0.72327 -6.32433,-2.63513c-1.79939,-1.91185 -2.1081,-3.63344 -2.1081,-6.32432c0,-6.60889 -1.4467,-35.01693 -0.85446,-48.50087c0.19654,-4.47479 0.44956,-5.2228 2.53399,-7.12269c2.08443,-1.8999 4.33414,-1.8224 7.27992,-1.8224c7.42847,0 38.85407,-1.33015 52.14186,-0.77366c3.60091,0.15081 4.45787,0.93654 6.35814,2.88178c1.90028,1.94525 2.63514,3.17333 2.63514,6.32432c0,7.70065 0.30941,38.86842 -0.31587,50.02031c-0.13155,2.34618 -0.73099,3.71483 -2.31927,5.31753z" data-paper-data="{&quot;index&quot;:null}" fill="#d0ab70" stroke="none" stroke-width="0" stroke-linecap="butt"/><path d="M259.69664,140.34463c-3.45178,0 -6.25,-2.79822 -6.25,-6.25c0,-3.45178 2.79822,-6.25 6.25,-6.25c3.45178,0 6.25,2.79822 6.25,6.25c0,3.45178 -2.79822,6.25 -6.25,6.25z" data-paper-data="{&quot;index&quot;:null}" fill="#000000" stroke="none" stroke-width="0.5" stroke-linecap="butt"/><path d="M272.34528,164.66219c0,0 -3.99004,0.88774 -5.5762,0.30336c-3.46592,-1.27692 -14.45082,-7.68174 -14.45082,-7.68174" data-paper-data="{&quot;index&quot;:null}" fill="none" stroke="#000000" stroke-width="2.5" stroke-linecap="round"/><path d="M272.87232,174.67571c-1.58828,1.6027 -2.93234,2.18097 -5.23216,2.30248c-11.53024,0.60915 -45.3223,0.33265 -53.79487,0.33265c-3.62551,0 -4.52493,-0.72327 -6.32433,-2.63513c-1.79939,-1.91185 -2.1081,-3.63344 -2.1081,-6.32432c0,-6.60889 -1.4467,-35.01693 -0.85446,-48.50087c0.19654,-4.47479 0.44956,-5.2228 2.53399,-7.12269c2.08443,-1.8999 4.33414,-1.8224 7.27992,-1.8224c7.42847,0 38.85407,-1.33015 52.14186,-0.77366c3.60091,0.15081 4.45787,0.93654 6.35814,2.88178c1.90028,1.94525 2.63514,3.17333 2.63514,6.32432c0,1.947 0.01978,5.39418 0.03923,9.63871c-1.08539,-0.0645 -2.38609,-0.14303 -4.1493,-0.26457c-2.38949,-0.16471 -11.69975,-6.49053 -11.8641,-6.35789c-1.41697,0.88267 -10.568,5.3386 -10.568,7.13091c0,2.24507 3.91988,11.24332 5.9572,11.87519c0.2852,0.08846 5.68359,0.37391 5.98813,0.41015c3.01772,0.54759 9.45381,-3.10843 9.73741,-3.08635c1.47825,0.11507 3.34707,0.21296 4.93241,0.29984c0.01981,11.27313 -0.03404,24.04625 -0.38886,30.37434c-0.13155,2.34618 -0.73099,3.71483 -2.31927,5.31753z" data-paper-data="{&quot;index&quot;:null}" fill="#272727" stroke="none" stroke-width="0" stroke-linecap="butt"/><path d="M255.17033,118.46397l15.33689,9.61924" fill="none" stroke="#000000" stroke-width="5" stroke-linecap="round"/><path d="M234.44362,201.9634c0,0 0,-12.98037 0,-15.65925c0,-0.92472 0.57489,-1.86588 1.4525,-1.86588c2.41562,0 7.12468,0 8.45138,0c0.68241,0 1.40981,0.68177 1.40981,1.4049c0,2.44949 0,16.12024 0,16.12024z" fill="#4e4e4e" stroke="#000000" stroke-width="2" stroke-linecap="butt"/><path d="M245.75731,202.41666c0,0 0,1.22417 0,3.67366c0,0.72313 -0.7274,1.4049 -1.40981,1.4049c-1.3267,0 -6.03576,0 -8.45138,0c-0.87761,0 -1.45251,-0.94116 -1.45251,-1.86588c0,-2.67888 0,-3.21267 0,-3.21267z" data-paper-data="{&quot;index&quot;:null}" fill="#000000" stroke="#000000" stroke-width="2" stroke-linecap="butt"/><path d="M224.41637,231.35673v-4.71429h31.71429l0.45139,4.71429c0,0 0.52744,9.61455 0.14068,15.74878c-0.04127,0.65453 -0.11403,1.85644 -0.9935,2.09592c-0.40038,0.10902 -2.40641,0.66869 -4.16909,0.75434c-2.10915,0.10249 -2.63843,0.05747 -4.2818,-0.27861c-1.64337,-0.33608 -2.1104,-0.7191 -2.16018,-1.03881c-0.45834,-2.94401 0.25793,-17.28161 0.25793,-17.28161h-10.12393c0,0 0.36913,11.61381 0.19788,15.76436c-0.03726,0.90303 0.16108,1.00582 -0.19788,1.45277c-0.35896,0.44695 -0.93286,0.80472 -1.67336,0.87718c-0.7405,0.07246 -8.17791,0.46674 -8.52716,-0.77412c-0.90557,-3.21741 -0.63527,-17.32019 -0.63527,-17.32019z" data-paper-data="{&quot;index&quot;:null}" fill="#00420c" stroke="#000000" stroke-width="2" stroke-linecap="butt"/></g></g></svg>