<svg version="1.1" xmlns="http://www.w3.org/2000/svg" xmlns:xlink="http://www.w3.org/1999/xlink" width="71.16799" height="140.68147" viewBox="0,0,71.16799,140.68147"><defs><linearGradient x1="255.00385" y1="180.93601" x2="258.54174" y2="183.29098" gradientUnits="userSpaceOnUse" id="color-1"><stop offset="0" stop-color="#fff000"/><stop offset="1" stop-color="#d0c400"/></linearGradient><linearGradient x1="240.05836" y1="178.3865" x2="243.98723" y2="180.00716" gradientUnits="userSpaceOnUse" id="color-2"><stop offset="0" stop-color="#fff000"/><stop offset="1" stop-color="#d0c400"/></linearGradient><linearGradient x1="242.46454" y1="179.91241" x2="246.41439" y2="181.48124" gradientUnits="userSpaceOnUse" id="color-3"><stop offset="0" stop-color="#fff000"/><stop offset="1" stop-color="#d0c400"/></linearGradient><linearGradient x1="245.63121" y1="181.49575" x2="249.58105" y2="183.06457" gradientUnits="userSpaceOnUse" id="color-4"><stop offset="0" stop-color="#fff000"/><stop offset="1" stop-color="#d0c400"/></linearGradient><linearGradient x1="248.20768" y1="183.02922" x2="252.3379" y2="184.0311" gradientUnits="userSpaceOnUse" id="color-5"><stop offset="0" stop-color="#fff000"/><stop offset="1" stop-color="#d0c400"/></linearGradient><linearGradient x1="251.14935" y1="184.19881" x2="255.39624" y2="184.36151" gradientUnits="userSpaceOnUse" id="color-6"><stop offset="0" stop-color="#fff000"/><stop offset="1" stop-color="#d0c400"/></linearGradient><linearGradient x1="254.04887" y1="184.31241" x2="258.16339" y2="183.24791" gradientUnits="userSpaceOnUse" id="color-7"><stop offset="0" stop-color="#fff000"/><stop offset="1" stop-color="#d0c400"/></linearGradient><linearGradient x1="253.71156" y1="190.80059" x2="259.95129" y2="190.80059" gradientUnits="userSpaceOnUse" id="color-8"><stop offset="0" stop-color="#fff000"/><stop offset="1" stop-color="#d0c400"/></linearGradient></defs><g transform="translate(-204.41602,-109.9957)"><g data-paper-data="{&quot;isPaintingLayer&quot;:true}" fill-rule="nonzero" stroke-linejoin="miter" stroke-miterlimit="10" stroke-dasharray="" stroke-dashoffset="0" style="mix-blend-mode: normal"><path d="M255.00385,180.93601c0.51004,-0.76624 1.7155,-0.86023 2.69246,-0.20992c0.97696,0.65031 1.35547,1.79865 0.84543,2.56489c-0.51004,0.76624 -1.7155,0.86023 -2.69246,0.20992c-0.97696,-0.65031 -1.35546,-1.79865 -0.84542,-2.56489z" fill="none" stroke="url(#color-1)" stroke-width="1.5" stroke-linecap="butt"/><path d="M255.48043,229.02554c0,0 -1.01251,0.57143 -1.72806,0.57143c-2.77507,0 -20.55945,0.04697 -26.86448,-0.09255c-1.41046,-0.03121 -1.41781,0.09481 -1.97503,-0.47888c-0.55722,-0.57369 -0.42857,-1.18184 -0.42857,-1.99573c0,-4.88351 0.42857,-50.70697 0.42857,-50.70697h30.56757c0,0 0.57143,44.24265 0.57143,49.99268c0,1.18252 -0.57143,2.71001 -0.57143,2.71001z" data-paper-data="{&quot;index&quot;:null}" fill="#4e4e4e" stroke="#000000" stroke-width="2" stroke-linecap="butt"/><path d="M272.87233,174.67571c-1.58828,1.6027 -2.93234,2.18097 -5.23216,2.30248c-11.53024,0.60915 -45.3223,0.33265 -53.79487,0.33265c-3.62551,0 -4.52493,-0.72327 -6.32433,-2.63513c-1.79939,-1.91185 -2.1081,-3.63344 -2.1081,-6.32432c0,-6.60889 -1.4467,-35.01693 -0.85446,-48.50087c0.19654,-4.47479 0.44956,-5.2228 2.53399,-7.12269c2.08443,-1.8999 4.33414,-1.8224 7.27992,-1.8224c7.42847,0 38.85407,-1.33015 52.14186,-0.77366c3.60091,0.15081 4.45787,0.93654 6.35814,2.88178c1.90028,1.94525 2.63514,3.17333 2.63514,6.32432c0,7.70065 0.30941,38.86842 -0.31587,50.02031c-0.13155,2.34618 -0.73099,3.71483 -2.31927,5.31753z" data-paper-data="{&quot;index&quot;:null}" fill="#d0ab70" stroke="none" stroke-width="0" stroke-linecap="butt"/><path d="M272.34529,164.66219c0,0 -3.99004,0.88774 -5.5762,0.30336c-3.46592,-1.27692 -14.45082,-7.68174 -14.45082,-7.68174" data-paper-data="{&quot;index&quot;:null}" fill="none" stroke="#000000" stroke-width="2.5" stroke-linecap="round"/><path d="M234.44363,201.9634c0,0 -3.99606,-5.21033 -3.99606,-9.74029c0,-2.54896 3.99606,-4.95436 3.99606,-5.91896c0,-0.92472 0.57489,-1.86588 1.4525,-1.86588c2.41562,0 7.12468,0 8.45138,0c0.68241,0 1.40981,0.68177 1.40981,1.4049c0,0.48675 3.15478,2.26852 3.15478,4.38191c0,0.99442 -0.48814,3.54671 -1.22777,6.08203c-0.83228,2.8529 -1.92701,5.65631 -1.92701,5.65631z" fill="#d0ab70" stroke="#000000" stroke-width="2" stroke-linecap="butt"/><path d="M245.75732,202.41666c0,0 0,1.22417 0,3.67366c0,0.72313 -0.7274,1.4049 -1.40981,1.4049c-1.3267,0 -6.03576,0 -8.45138,0c-0.87761,0 -1.45251,-0.94116 -1.45251,-1.86588c0,-2.67888 0,-3.21267 0,-3.21267z" data-paper-data="{&quot;index&quot;:null}" fill="#d0ab70" stroke="#000000" stroke-width="2" stroke-linecap="butt"/><path d="M224.41638,231.35673v-4.71429h31.71429l0.45139,4.71429c0,0 0.52744,9.61455 0.14068,15.74878c-0.04127,0.65453 -0.11403,1.85644 -0.9935,2.09592c-0.40038,0.10902 -2.40641,0.66869 -4.16909,0.75434c-2.10915,0.10249 -2.63843,0.05747 -4.2818,-0.27861c-1.64337,-0.33608 -2.1104,-0.7191 -2.16018,-1.03881c-0.45834,-2.94401 0.25793,-17.28161 0.25793,-17.28161h-10.12393c0,0 0.36913,11.61381 0.19788,15.76436c-0.03726,0.90303 0.16108,1.00582 -0.19788,1.45277c-0.35896,0.44695 -0.93286,0.80472 -1.67336,0.87718c-0.7405,0.07246 -8.17791,0.46674 -8.52716,-0.77412c-0.90557,-3.21741 -0.63527,-17.32019 -0.63527,-17.32019z" data-paper-data="{&quot;index&quot;:null}" fill="#0023af" stroke="#000000" stroke-width="2" stroke-linecap="butt"/><path d="M236.55146,195.6021c-0.75,0 -0.75,-0.75 -0.75,-0.75l0.01786,-0.04762c-0.25894,-1.1891 -0.22921,-2.17475 -0.11993,-3.38538c0,0 0.0679,-0.74692 0.81482,-0.67902c0.74692,0.0679 0.67902,0.81482 0.67902,0.81482c-0.09734,1.06275 -0.14597,1.88539 0.09038,2.92418l0.01785,0.37302c0,0 0,0.75 -0.75,0.75z" fill-opacity="0.16129" fill="#000000" stroke="none" stroke-width="0.5" stroke-linecap="butt"/><path d="M243.14809,191.26817c-0.72761,0.1819 -0.90951,-0.5457 -0.90951,-0.5457l-0.06691,-0.3071c-0.31548,-0.73612 -0.63095,-1.47223 -0.94643,-2.20835c0,0 -0.29544,-0.68936 0.39392,-0.9848c0.68936,-0.29544 0.9848,0.39392 0.9848,0.39392c0.31548,0.73612 0.63096,1.47223 0.94644,2.20835l0.14341,0.53418c0,0 0.1819,0.72761 -0.5457,0.90951z" fill-opacity="0.16129" fill="#000000" stroke="none" stroke-width="0.5" stroke-linecap="butt"/><path d="M242.33951,200.30541c-0.72115,-0.20604 -0.5151,-0.92718 -0.5151,-0.92718l0.20698,-0.72407c0.06906,-0.2764 0.13813,-0.55279 0.20719,-0.82918c0,0 0.18191,-0.72761 0.90951,-0.5457c0.72761,0.1819 0.5457,0.90951 0.5457,0.90951c-0.07115,0.28446 -0.1423,0.56891 -0.21345,0.85337l-0.21365,0.74816c0,0 -0.20604,0.72114 -0.92719,0.5151z" fill-opacity="0.16129" fill="#000000" stroke="none" stroke-width="0.5" stroke-linecap="butt"/><path d="M240.05836,178.3865c0.35101,-0.85092 1.51506,-1.17793 2.59998,-0.7304c1.08493,0.44753 1.67989,1.50014 1.32888,2.35106c-0.35101,0.85092 -1.51506,1.17793 -2.59998,0.7304c-1.08493,-0.44753 -1.67989,-1.50014 -1.32888,-2.35106z" fill="none" stroke="url(#color-2)" stroke-width="1.5" stroke-linecap="butt"/><path d="M242.46454,179.91241c0.33978,-0.85546 1.49943,-1.19776 2.59015,-0.76454c1.09072,0.43322 1.69948,1.4779 1.3597,2.33337c-0.33978,0.85546 -1.49943,1.19777 -2.59015,0.76455c-1.09072,-0.43322 -1.69948,-1.47791 -1.3597,-2.33337z" fill="none" stroke="url(#color-3)" stroke-width="1.5" stroke-linecap="butt"/><path d="M245.63121,181.49575c0.33978,-0.85547 1.49943,-1.19777 2.59015,-0.76454c1.09072,0.43322 1.69948,1.4779 1.3597,2.33337c-0.33978,0.85547 -1.49943,1.19777 -2.59015,0.76455c-1.09072,-0.43322 -1.69947,-1.47791 -1.35969,-2.33337z" fill="none" stroke="url(#color-4)" stroke-width="1.5" stroke-linecap="butt"/><path d="M248.20768,183.02922c0.21699,-0.89453 1.31747,-1.39542 2.458,-1.11875c1.14053,0.27666 1.88921,1.2261 1.67222,2.12063c-0.21699,0.89453 -1.31748,1.39542 -2.45801,1.11876c-1.14053,-0.27666 -1.8892,-1.22611 -1.67222,-2.12064z" fill="none" stroke="url(#color-5)" stroke-width="1.5" stroke-linecap="butt"/><path d="M251.14935,184.19881c0.03524,-0.9198 1.0145,-1.62902 2.18724,-1.58409c1.17275,0.04493 2.09488,0.82699 2.05964,1.74679c-0.03524,0.9198 -1.0145,1.62903 -2.18725,1.5841c-1.17275,-0.04493 -2.09488,-0.827 -2.05964,-1.7468z" fill="none" stroke="url(#color-6)" stroke-width="1.5" stroke-linecap="butt"/><path d="M254.04887,184.31241c-0.23055,-0.89113 0.50361,-1.85183 1.63981,-2.14579c1.13619,-0.29396 2.24417,0.19016 2.47471,1.08129c0.23055,0.89113 -0.50362,1.85184 -1.63981,2.14579c-1.13619,0.29396 -2.24416,-0.19016 -2.47471,-1.08129z" fill="none" stroke="url(#color-7)" stroke-width="1.5" stroke-linecap="butt"/><path d="M256.98113,196.72221c-0.75,0 -0.75,-0.75 -0.75,-0.75l0.00347,-0.53512c-0.42804,-0.1501 -0.82999,-0.36962 -1.16401,-0.65045l-0.48626,-0.40493c0,0 -0.57617,-0.48014 -0.09603,-1.0563c0.48014,-0.57617 1.0563,-0.09603 1.0563,-0.09603l0.51374,0.4284c0.08821,0.0819 0.19755,0.16195 0.3205,0.23581c0.05293,-0.60119 0.09712,-1.19481 0.12407,-1.78418c-0.59935,-0.11304 -1.1696,-0.18551 -1.42285,-0.33677c-2.69841,-1.61168 -0.91212,-3.32138 1.11957,-4.30566c-0.10985,-0.52597 -0.25118,-1.05549 -0.43002,-1.59093c0,0 -0.23717,-0.71151 0.47434,-0.94868c0.71151,-0.23717 0.94868,0.47434 0.94868,0.47434c0.16828,0.5058 0.30619,1.00671 0.4179,1.50444c0.48237,-0.15118 0.91741,-0.24411 1.23736,-0.26561c0,0 0.74834,-0.04989 0.79823,0.69845c0.04989,0.74834 -0.69845,0.79823 -0.69845,0.79823c-0.36699,0.02426 -0.73484,0.03807 -1.10122,0.06976c0.13405,0.95808 0.1831,1.90988 0.17768,2.86797c0.87557,0.26033 1.63354,0.6942 1.85686,1.8228c0.37133,1.87652 -0.78456,2.71495 -2.15254,2.77038l0.00266,0.30409c0,0 0,0.75 -0.75,0.75zM258.41458,193.21334c-0.04542,-0.2639 -0.20804,-0.46325 -0.43987,-0.61797c-0.03077,0.54818 -0.07385,1.1005 -0.1237,1.65925c0.40615,-0.07468 0.67858,-0.37299 0.56357,-1.04128zM255.88219,190.50512c0.20377,0.08291 0.42218,0.14927 0.64812,0.20799c-0.00618,-0.63258 -0.0404,-1.26325 -0.11339,-1.89621c-0.8475,0.52134 -1.59126,1.25835 -0.53472,1.68821z" fill="url(#color-8)" stroke="none" stroke-width="0.5" stroke-linecap="butt"/><path d="M259.69665,140.34463c-3.45178,0 -6.25,-2.79822 -6.25,-6.25c0,-3.45178 2.79822,-6.25 6.25,-6.25c3.45178,0 6.25,2.79822 6.25,6.25c0,3.45178 -2.79822,6.25 -6.25,6.25z" data-paper-data="{&quot;index&quot;:null}" fill="#000000" stroke="none" stroke-width="0.5" stroke-linecap="butt"/><path d="M272.87233,174.67571c-1.58828,1.6027 -2.93234,2.18097 -5.23216,2.30248c-11.53024,0.60915 -45.3223,0.33265 -53.79487,0.33265c-3.62551,0 -4.52493,-0.72327 -6.32433,-2.63513c-1.79939,-1.91185 -2.1081,-3.63344 -2.1081,-6.32432c0,-6.60889 -1.4467,-35.01693 -0.85446,-48.50087c0.19654,-4.47479 0.44956,-5.2228 2.53399,-7.12269c2.08443,-1.8999 4.33414,-1.8224 7.27992,-1.8224c7.42847,0 38.85407,-1.33015 52.14186,-0.77366c3.60091,0.15081 4.45787,0.93654 6.35814,2.88178c1.90028,1.94525 2.63514,3.17333 2.63514,6.32432c0,1.947 0.01978,5.39418 0.03923,9.63871c-1.08539,-0.0645 -2.38609,-0.14303 -4.1493,-0.26457c-2.38949,-0.16471 -11.69975,-6.49053 -11.8641,-6.35789c-1.41697,0.88267 -10.568,5.3386 -10.568,7.13091c0,2.24507 3.91988,11.24332 5.9572,11.87519c0.2852,0.08846 5.68359,0.37391 5.98813,0.41015c3.01772,0.54759 9.45381,-3.10843 9.73741,-3.08635c1.47825,0.11507 3.34707,0.21296 4.93241,0.29984c0.01981,11.27313 -0.03404,24.04625 -0.38886,30.37434c-0.13155,2.34618 -0.73099,3.71483 -2.31927,5.31753z" data-paper-data="{&quot;index&quot;:null}" fill="#272727" stroke="none" stroke-width="0" stroke-linecap="butt"/><path d="M255.17034,118.46397l15.33689,9.61924" fill="none" stroke="#000000" stroke-width="5" stroke-linecap="round"/><path d="M237.53758,204.11479v-3.76923h5.23077v3.76923z" fill="#a3d1d1" stroke="#000000" stroke-width="1" stroke-linecap="butt"/></g></g></svg>