<svg version="1.1" xmlns="http://www.w3.org/2000/svg" xmlns:xlink="http://www.w3.org/1999/xlink" width="71.16799" height="128.48516" viewBox="0,0,71.16799,128.48516"><g transform="translate(-204.416,-122.33447)"><g data-paper-data="{&quot;isPaintingLayer&quot;:true}" fill-rule="nonzero" stroke-linejoin="miter" stroke-miterlimit="10" stroke-dasharray="" stroke-dashoffset="0" style="mix-blend-mode: normal"><path d="M255.48042,234.5821c0,0 -1.01251,0.57143 -1.72806,0.57143c-2.77507,0 -20.55945,0.04697 -26.86448,-0.09255c-1.41046,-0.03121 -1.41781,0.09481 -1.97503,-0.47888c-0.55722,-0.57369 -0.42857,-1.18184 -0.42857,-1.99573c0,-4.88351 0.42857,-32.75503 0.42857,-32.75503h30.56757c0,0 0.57143,26.29071 0.57143,32.04074c0,1.18252 -0.57143,2.71001 -0.57143,2.71001z" data-paper-data="{&quot;index&quot;:null}" fill="#7c1e1e" stroke="#000000" stroke-width="2" stroke-linecap="butt"/><path d="M272.87232,197.32935c-1.58828,1.6027 -2.93234,2.18097 -5.23216,2.30248c-11.53024,0.60915 -45.3223,0.33265 -53.79487,0.33265c-3.62551,0 -4.52493,-0.72327 -6.32433,-2.63513c-1.79939,-1.91185 -2.1081,-3.63344 -2.1081,-6.32432c0,-6.60889 -1.4467,-35.01693 -0.85446,-48.50087c0.19654,-4.47479 0.44956,-5.2228 2.53399,-7.12269c2.08443,-1.8999 4.33414,-1.8224 7.27992,-1.8224c7.42847,0 38.85407,-1.33015 52.14186,-0.77366c3.60091,0.15081 4.45787,0.93654 6.35814,2.88178c1.90028,1.94525 2.63514,3.17333 2.63514,6.32432c0,7.70065 0.30941,38.86842 -0.31587,50.02031c-0.13155,2.34618 -0.73099,3.71483 -2.31927,5.31753z" data-paper-data="{&quot;index&quot;:null}" fill="#ffd38a" stroke="none" stroke-width="0" stroke-linecap="butt"/><path d="M259.69664,162.99827c-3.45178,0 -6.25,-2.79822 -6.25,-6.25c0,-3.45178 2.79822,-6.25 6.25,-6.25c3.45178,0 6.25,2.79822 6.25,6.25c0,3.45178 -2.79822,6.25 -6.25,6.25z" data-paper-data="{&quot;index&quot;:null}" fill="#000000" stroke="none" stroke-width="0.5" stroke-linecap="butt"/><path d="M224.41637,239.19289v-4.71429h31.71429l0.45139,4.71429c0,0 0.52744,1.92086 0.14068,8.05509c-0.04127,0.65453 -0.11403,1.85644 -0.9935,2.09592c-0.40038,0.10902 -2.40641,0.66869 -4.16909,0.75434c-2.10915,0.10249 -2.63843,0.05747 -4.2818,-0.27861c-1.64337,-0.33608 -2.1104,-0.7191 -2.16018,-1.03881c-0.45834,-2.94401 0.25793,-9.58792 0.25793,-9.58792h-10.12393c0,0 0.36913,3.92012 0.19788,8.07067c-0.03726,0.90303 0.16108,1.00582 -0.19788,1.45277c-0.35896,0.44695 -0.93286,0.80472 -1.67336,0.87718c-0.7405,0.07246 -8.17791,0.46674 -8.52716,-0.77412c-0.90557,-3.21741 -0.63527,-9.6265 -0.63527,-9.6265z" data-paper-data="{&quot;index&quot;:null}" fill="#357186" stroke="#000000" stroke-width="2" stroke-linecap="butt"/><path d="M234.44362,213.95076c0,0 0,-6.58836 0,-9.26724c0,-0.92472 0.5749,-1.86588 1.45251,-1.86588c2.41562,0 7.12468,0 8.45138,0c0.68241,0 1.40981,0.68177 1.40981,1.4049c0,2.44949 0,9.72823 0,9.72823z" fill="#7c1e1e" stroke="#000000" stroke-width="2" stroke-linecap="butt"/><path d="M245.75732,214.40402c0,0 0,1.22417 0,3.67366c0,0.72312 -0.7274,1.40489 -1.40981,1.40489c-1.3267,0 -6.03576,0 -8.45138,0c-0.87761,0 -1.45251,-0.94116 -1.45251,-1.86588c0,-2.67888 0,-3.21268 0,-3.21268z" data-paper-data="{&quot;index&quot;:null}" fill="#ffd38a" stroke="#000000" stroke-width="2" stroke-linecap="butt"/><path d="M238.11992,136.23634c0,0 -1.18892,-4.52465 -1.53778,-7.81947c-0.34886,-3.29482 1.99923,-4.34767 4.83239,-4.8324c2.83316,-0.48472 3.13849,-0.1274 3.81992,1.42291c0.35729,0.81288 -0.27599,2.8378 -1.6765,3.49137c-1.40051,0.65357 -2.15158,-0.84184 -2.58485,-1.09436" fill="none" stroke="#000000" stroke-width="2.5" stroke-linecap="round"/><path d="M274.31659,187.52111c0,0 -5.12029,1.31168 -8.25635,0.26633c-3.13606,-1.04535 -5.33923,-2.511 -6.52518,-5.19351c-1.18595,-2.68251 0.93217,-7.45735 0.93217,-7.45735" fill="none" stroke="#000000" stroke-width="2.5" stroke-linecap="round"/><path d="M261.6959,155.35212c0,-0.86589 0.70194,-1.56783 1.56783,-1.56783c0.86589,0 1.56783,0.70194 1.56783,1.56783c0,0.86589 -0.70194,1.56783 -1.56783,1.56783c-0.86589,0 -1.56783,-0.70194 -1.56783,-1.56783z" fill="#ffffff" stroke="none" stroke-width="0.5" stroke-linecap="butt"/></g></g></svg>