<svg version="1.1" xmlns="http://www.w3.org/2000/svg" xmlns:xlink="http://www.w3.org/1999/xlink" width="515.37193" height="395.95187" viewBox="0,0,515.37193,395.95187"><defs><linearGradient x1="199.16387" y1="92.97635" x2="199.16387" y2="150.27288" gradientUnits="userSpaceOnUse" id="color-1"><stop offset="0" stop-color="#929292"/><stop offset="1" stop-color="#f3f3f3"/></linearGradient><linearGradient x1="19.22736" y1="-1.85388" x2="19.22736" y2="142.65962" gradientUnits="userSpaceOnUse" id="color-2"><stop offset="0" stop-color="#ffffff"/><stop offset="1" stop-color="#f5f5f5"/></linearGradient><linearGradient x1="-4.51779" y1="143.17027" x2="46.0364" y2="143.17027" gradientUnits="userSpaceOnUse" id="color-3"><stop offset="0" stop-color="#ffffff"/><stop offset="1" stop-color="#f6f6f6"/></linearGradient><linearGradient x1="227.06127" y1="-0.83258" x2="227.06127" y2="143.68089" gradientUnits="userSpaceOnUse" id="color-4"><stop offset="0" stop-color="#ffffff"/><stop offset="1" stop-color="#f5f5f5"/></linearGradient><linearGradient x1="252.33837" y1="144.70219" x2="201.78418" y2="144.70219" gradientUnits="userSpaceOnUse" id="color-5"><stop offset="0" stop-color="#ffffff"/><stop offset="1" stop-color="#f6f6f6"/></linearGradient></defs><g transform="translate(9.11363,29.27)"><g data-paper-data="{&quot;isPaintingLayer&quot;:true}" fill-rule="nonzero" stroke-linejoin="miter" stroke-miterlimit="10" stroke-dasharray="" stroke-dashoffset="0" style="mix-blend-mode: normal"><g stroke-width="0" stroke-linecap="butt"><g stroke="none"><path d="M40.88637,137.93184v-44h194.79975v44z" fill="#ff6767"/><path d="M28.88637,113.93184v-20h211.8665v20z" fill="#c2c2c2"/><path d="M31.88637,146.93186v-20h211.8665v20z" fill="#c2c2c2"/><path d="M189.66387,150.27288v-57.29652h19v57.29652z" fill="url(#color-1)"/></g><g><path d="M193.21688,107.93184v-73h48.56356v73z" fill="#c7e0f5" stroke="none"/><path d="M188.88637,92.82758v-6.86014h51.9661v6.86014z" fill="#b3b3b3" stroke="none"/><path d="M188.88637,53.06305v-6.86014h51.9661v6.86014z" fill="#b3b3b3" stroke="none"/><path d="M188.88637,71.4159v-6.86014h51.9661v6.86014z" fill="#b3b3b3" stroke="none"/><path d="M189.17249,108.241v-73.25h4.75v73.25z" fill="#b3b3b3" stroke="#ffc400"/></g></g><path d="M37.45868,142.0732v-128.5h173.66892v128.5z" fill="#8dcbe9" stroke="#000000" stroke-width="0" stroke-linecap="butt"/><path d="M216.09282,156.73v-186h289v186z" fill="#73d0ff" stroke="#000000" stroke-width="0" stroke-linecap="butt"/><g data-paper-data="{&quot;index&quot;:null}" stroke="none" stroke-linecap="butt"><path d="M98.76457,131.43121l-1.39167,-16.28138l47.31776,-4.04453l1.39166,16.28139z" fill="#00ff0b" stroke-width="0"/><text transform="translate(98.65753,130.17896) rotate(-4.8853) scale(0.40852,0.40852)" font-size="40" xml:space="preserve" fill="#fff500" fill-rule="nonzero" stroke="none" stroke-width="1" stroke-linecap="butt" stroke-linejoin="miter" stroke-miterlimit="10" stroke-dasharray="" stroke-dashoffset="0" font-family="Pixel" font-weight="normal" text-anchor="start" style="mix-blend-mode: normal"><tspan x="0" dy="0">$</tspan></text><text transform="translate(133.72076,126.6694) rotate(-4.8853) scale(0.40852,0.40852)" font-size="40" xml:space="preserve" fill="#fff500" fill-rule="nonzero" stroke="none" stroke-width="1" stroke-linecap="butt" stroke-linejoin="miter" stroke-miterlimit="10" stroke-dasharray="" stroke-dashoffset="0" font-family="Pixel" font-weight="normal" text-anchor="start" style="mix-blend-mode: normal"><tspan x="0" dy="0">$</tspan></text><text transform="translate(115.86952,127.68274) rotate(-4.8853) scale(0.40852,0.40852)" font-size="40" xml:space="preserve" fill="#fff500" fill-rule="nonzero" stroke="none" stroke-width="1" stroke-linecap="butt" stroke-linejoin="miter" stroke-miterlimit="10" stroke-dasharray="" stroke-dashoffset="0" font-family="Pixel" font-weight="normal" text-anchor="start" style="mix-blend-mode: normal"><tspan x="0" dy="0">$</tspan></text></g><g data-paper-data="{&quot;index&quot;:null}" stroke="none" stroke-linecap="butt"><path d="M197.73844,130.32451l-8.21458,14.12589l-41.05337,-23.87364l8.21458,-14.12589z" fill="#00ff0b" stroke-width="0"/><text transform="translate(156.05325,107.53738) rotate(30.179) scale(0.40852,-0.40852)" font-size="40" xml:space="preserve" fill="#fff500" fill-rule="nonzero" stroke="none" stroke-width="1" stroke-linecap="butt" stroke-linejoin="miter" stroke-miterlimit="10" stroke-dasharray="" stroke-dashoffset="0" font-family="Pixel" font-weight="normal" text-anchor="start" style="mix-blend-mode: normal"><tspan x="0" dy="0">$</tspan></text><text transform="translate(186.25549,125.69151) rotate(30.179) scale(0.40852,-0.40852)" font-size="40" xml:space="preserve" fill="#fff500" fill-rule="nonzero" stroke="none" stroke-width="1" stroke-linecap="butt" stroke-linejoin="miter" stroke-miterlimit="10" stroke-dasharray="" stroke-dashoffset="0" font-family="Pixel" font-weight="normal" text-anchor="start" style="mix-blend-mode: normal"><tspan x="0" dy="0">$</tspan></text><text transform="translate(170.5486,117.14824) rotate(30.179) scale(0.40852,-0.40852)" font-size="40" xml:space="preserve" fill="#fff500" fill-rule="nonzero" stroke="none" stroke-width="1" stroke-linecap="butt" stroke-linejoin="miter" stroke-miterlimit="10" stroke-dasharray="" stroke-dashoffset="0" font-family="Pixel" font-weight="normal" text-anchor="start" style="mix-blend-mode: normal"><tspan x="0" dy="0">$</tspan></text></g><g stroke="none" stroke-linecap="butt"><path d="M56.59798,130.73882l-8.21458,-14.12589l41.05337,-23.87363l8.21458,14.12589z" fill="#00ff0b" stroke-width="0"/><text transform="translate(55.96616,129.65237) rotate(-30.179) scale(0.40852,0.40852)" font-size="40" xml:space="preserve" fill="#fff500" fill-rule="nonzero" stroke="none" stroke-width="1" stroke-linecap="butt" stroke-linejoin="miter" stroke-miterlimit="10" stroke-dasharray="" stroke-dashoffset="0" font-family="Pixel" font-weight="normal" text-anchor="start" style="mix-blend-mode: normal"><tspan x="0" dy="0">$</tspan></text><text transform="translate(86.1684,111.49823) rotate(-30.179) scale(0.40852,0.40852)" font-size="40" xml:space="preserve" fill="#fff500" fill-rule="nonzero" stroke="none" stroke-width="1" stroke-linecap="butt" stroke-linejoin="miter" stroke-miterlimit="10" stroke-dasharray="" stroke-dashoffset="0" font-family="Pixel" font-weight="normal" text-anchor="start" style="mix-blend-mode: normal"><tspan x="0" dy="0">$</tspan></text><text transform="translate(70.46151,120.04151) rotate(-30.179) scale(0.40852,0.40852)" font-size="40" xml:space="preserve" fill="#fff500" fill-rule="nonzero" stroke="none" stroke-width="1" stroke-linecap="butt" stroke-linejoin="miter" stroke-miterlimit="10" stroke-dasharray="" stroke-dashoffset="0" font-family="Pixel" font-weight="normal" text-anchor="start" style="mix-blend-mode: normal"><tspan x="0" dy="0">$</tspan></text></g><g stroke="none" stroke-linecap="butt"><path d="M99.14384,101.80776v-16.34075h47.4903v16.34075z" fill="#00ff0b" stroke-width="0"/><text transform="translate(99.14384,100.55092) scale(0.40852,0.40852)" font-size="40" xml:space="preserve" fill="#fff500" fill-rule="nonzero" stroke="none" stroke-width="1" stroke-linecap="butt" stroke-linejoin="miter" stroke-miterlimit="10" stroke-dasharray="" stroke-dashoffset="0" font-family="Pixel" font-weight="normal" text-anchor="start" style="mix-blend-mode: normal"><tspan x="0" dy="0">$</tspan></text><text transform="translate(134.37858,100.04028) scale(0.40852,0.40852)" font-size="40" xml:space="preserve" fill="#fff500" fill-rule="nonzero" stroke="none" stroke-width="1" stroke-linecap="butt" stroke-linejoin="miter" stroke-miterlimit="10" stroke-dasharray="" stroke-dashoffset="0" font-family="Pixel" font-weight="normal" text-anchor="start" style="mix-blend-mode: normal"><tspan x="0" dy="0">$</tspan></text><text transform="translate(116.50589,99.52962) scale(0.40852,0.40852)" font-size="40" xml:space="preserve" fill="#fff500" fill-rule="nonzero" stroke="none" stroke-width="1" stroke-linecap="butt" stroke-linejoin="miter" stroke-miterlimit="10" stroke-dasharray="" stroke-dashoffset="0" font-family="Pixel" font-weight="normal" text-anchor="start" style="mix-blend-mode: normal"><tspan x="0" dy="0">$</tspan></text></g><path d="M-9.11363,366.68188v-227.08614h493.96518v227.08614z" fill="#717171" stroke="none" stroke-width="0" stroke-linecap="butt"/><path d="M-2.4752,142.65962v-144.5135h43.40512v144.51351z" fill="url(#color-2)" stroke="none" stroke-width="0" stroke-linecap="butt"/><path d="M-4.51779,149.29804v-12.25557h50.5542v12.25557z" fill="url(#color-3)" stroke="none" stroke-width="0" stroke-linecap="butt"/><path d="M205.35871,143.68089v-144.5135h43.40512v144.5135z" fill="url(#color-4)" stroke="none" stroke-width="0" stroke-linecap="butt"/><path d="M201.78418,150.82996v-12.25556h50.55419v12.25556z" data-paper-data="{&quot;index&quot;:null}" fill="url(#color-5)" stroke="none" stroke-width="0" stroke-linecap="butt"/><text transform="translate(77.92001,58.78562) scale(0.35107,0.35107)" font-size="40" xml:space="preserve" fill="#000000" fill-rule="nonzero" stroke="none" stroke-width="1" stroke-linecap="butt" stroke-linejoin="miter" stroke-miterlimit="10" stroke-dasharray="" stroke-dashoffset="0" font-family="Pixel" font-weight="normal" text-anchor="start" style="mix-blend-mode: normal"><tspan x="0" dy="0">MONEY BANK</tspan></text><path d="M32.24889,22.05371v-26.55372h179.74825v26.55372l-92.93801,-6.63843z" fill="#ffffff" stroke="none" stroke-width="0" stroke-linecap="butt"/><path d="M498.05729,1.19447c10.93468,10.93468 10.93468,28.6633 0,39.59798c-10.93468,10.93468 -28.6633,10.93468 -39.59798,0c-10.93468,-10.93468 -10.93468,-28.6633 0,-39.59798c10.93468,-10.93468 28.6633,-10.93468 39.59798,0z" fill="#ffdf75" stroke="none" stroke-width="0.5" stroke-linecap="butt"/><path d="M462.09282,65.73001l2,-16" fill="none" stroke="#ffdf75" stroke-width="5" stroke-linecap="round"/><path d="M435.6569,51.05198l12.72792,-9.8995" fill="none" stroke="#ffdf75" stroke-width="5" stroke-linecap="round"/><path d="M440.05335,20.53851l-16,-2" fill="none" stroke="#ffdf75" stroke-width="5" stroke-linecap="round"/><path d="M448.63088,4.83051l-9.8995,-12.72792" fill="none" stroke="#ffdf75" stroke-width="5" stroke-linecap="round"/><path d="M325.69964,296.54373v-49h20v49z" fill="#000000" stroke="none" stroke-width="0" stroke-linecap="butt"/><path d="M438.19965,296.54373v-49h20v49z" fill="#000000" stroke="none" stroke-width="0" stroke-linecap="butt"/><path d="M320.69964,261.48908v-61.5h141v61.5z" fill="#bf5050" stroke="#000000" stroke-width="0" stroke-linecap="butt"/><path d="M326.69964,206.98908v-61.5h124.5v61.5z" fill="#bf5050" stroke="#000000" stroke-width="0" stroke-linecap="butt"/><path d="M343.45868,193.0732v-37h95.5v37z" fill="#8dcbe9" stroke="#000000" stroke-width="0" stroke-linecap="butt"/><path d="M332.61153,240.51062c0,-6.90356 5.59644,-12.5 12.5,-12.5c6.90356,0 12.5,5.59644 12.5,12.5c0,6.90356 -5.59644,12.5 -12.5,12.5c-6.90356,0 -12.5,-5.59644 -12.5,-12.5z" fill="#e8c68e" stroke="none" stroke-width="0.5" stroke-linecap="butt"/><path d="M426.11153,242.01062c0,-6.90356 5.59644,-12.5 12.5,-12.5c6.90356,0 12.5,5.59644 12.5,12.5c0,6.90356 -5.59644,12.5 -12.5,12.5c-6.90356,0 -12.5,-5.59644 -12.5,-12.5z" fill="#e8c68e" stroke="none" stroke-width="0.5" stroke-linecap="butt"/><path d="M47.95868,141.0732v-64.95065h150.16892v64.95065z" fill-opacity="0.54035" fill="#8dcbe9" stroke="#000000" stroke-width="0" stroke-linecap="butt"/></g></g></svg>