<svg version="1.1" xmlns="http://www.w3.org/2000/svg" xmlns:xlink="http://www.w3.org/1999/xlink" width="72.982" height="65.14916" viewBox="0,0,72.982,65.14916"><g transform="translate(-207.86906,-147.19405)"><g data-paper-data="{&quot;isPaintingLayer&quot;:true}" fill-rule="nonzero" stroke-linecap="butt" stroke-linejoin="miter" stroke-miterlimit="10" stroke-dasharray="" stroke-dashoffset="0" style="mix-blend-mode: normal"><path d="M238.58886,196.2445l-14.62108,-14.62108l5.27951,-5.27951l5.88585,-1.53544l2.43112,-6.78153l8.44493,-3.8386l5.11813,-9.72446l5.75178,-3.19272l13.75184,-2.11438l-2.89261,14.09964l-4.73427,8.57288l-5.75791,1.15158l-1.15158,5.7579l-8.70083,3.07089l-2.55907,8.18901z" fill="#d8d8d8" stroke="#000000" stroke-width="2.5"/><path d="M215.05263,205.15964c-7.57808,-7.57808 -7.57808,-19.86456 0,-27.44265c7.57808,-7.57808 35.02073,19.86456 27.44265,27.44265c-7.57808,7.57808 -19.86456,7.57808 -27.44265,0zM223.34479,200.63843c1.22922,-1.22922 1.22922,-3.22219 0,-4.45142c-1.22922,-1.22922 -3.22219,-1.22922 -4.45142,0c-1.22922,1.22922 -1.22922,3.22219 0,4.45142c1.22922,1.22922 3.22219,1.22922 4.45142,0z" fill="#3faffd" stroke="#000000" stroke-width="3"/><path d="M251.13769,197.6351l0,-37.27235c0,0 6.83892,-11.9187 14.02049,-11.9187c7.18157,0 14.44288,11.91869 14.44288,11.91869l0,37.27235zM264.83164,159.9663c1.78444,0 3.23101,-1.44657 3.23101,-3.23101c0,-1.78444 -1.44657,-3.23101 -3.23101,-3.23101c-1.78444,0 -3.23101,1.44657 -3.23101,3.23101c0,1.78444 1.44657,3.23101 3.23101,3.23101z" fill="#ffc500" stroke="#000000" stroke-width="2.5"/><text transform="translate(257.85408,161.68284) rotate(90) scale(0.5,0.5)" font-size="40" xml:space="preserve" fill="#000000" fill-rule="nonzero" stroke="none" stroke-width="1" stroke-linecap="butt" stroke-linejoin="miter" stroke-miterlimit="10" stroke-dasharray="" stroke-dashoffset="0" font-family="Sans Serif" font-weight="normal" text-anchor="start" style="mix-blend-mode: normal"><tspan x="0" dy="0">125</tspan></text></g></g></svg>