<svg version="1.1" xmlns="http://www.w3.org/2000/svg" xmlns:xlink="http://www.w3.org/1999/xlink" width="62.64042" height="25.05192" viewBox="0,0,62.64042,25.05192"><defs><linearGradient x1="240" y1="168.97404" x2="240" y2="191.02596" gradientUnits="userSpaceOnUse" id="color-1"><stop offset="0" stop-color="#ffffff"/><stop offset="1" stop-color="#f5f5f5"/></linearGradient></defs><g transform="translate(-208.67979,-167.47404)"><g data-paper-data="{&quot;isPaintingLayer&quot;:true}" fill-rule="nonzero" stroke-linejoin="miter" stroke-miterlimit="10" stroke-dasharray="" stroke-dashoffset="0" style="mix-blend-mode: normal"><path d="M210.17979,191.02596v-22.05192h59.64042v22.05192z" fill="url(#color-1)" stroke="#000000" stroke-width="3" stroke-linecap="butt"/><path d="M252.86238,169.27445v19.78592" fill="none" stroke="#000000" stroke-width="3" stroke-linecap="round"/><path d="M260.99032,175.30445c0,-1.56106 1.09676,-2.82656 2.44969,-2.82656c1.35292,0 2.44969,1.2655 2.44969,2.82656c0,1.56106 -1.09676,2.82656 -2.44969,2.82656c-1.35292,0 -2.44969,-1.2655 -2.44969,-2.82656z" fill="#ff0000" stroke="none" stroke-width="0.5" stroke-linecap="butt"/><path d="M256.25426,181.14601c0,-3.12213 2.19352,-5.65312 4.89937,-5.65312c2.70585,0 4.89937,2.53099 4.89937,5.65312c0,3.12213 -2.19352,5.65312 -4.89937,5.65312c-2.70585,0 -4.89937,-2.53099 -4.89937,-5.65312z" fill="#000000" stroke="none" stroke-width="0.5" stroke-linecap="butt"/></g></g></svg>