<svg version="1.1" xmlns="http://www.w3.org/2000/svg" xmlns:xlink="http://www.w3.org/1999/xlink" width="71.76578" height="192.82706" viewBox="0,0,71.76578,192.82706"><defs><linearGradient x1="27.83793" y1="259.26373" x2="59.41834" y2="259.26373" gradientUnits="userSpaceOnUse" id="color-1"><stop offset="0" stop-color="#fff000"/><stop offset="1" stop-color="#d0c400"/></linearGradient></defs><g transform="translate(-7.18471,-113.10327)"><g data-paper-data="{&quot;isPaintingLayer&quot;:true}" fill-rule="nonzero" stroke-linejoin="miter" stroke-miterlimit="10" stroke-dasharray="" stroke-dashoffset="0" style="mix-blend-mode: normal"><path d="M38.49712,304.76719c0,0 -0.97369,0.71429 -1.71428,0.71429c-1.30965,0 -5.39359,0.1875 -7.55624,-0.01741c-0.78719,-0.07458 -1.44376,-0.69688 -1.44376,-0.69688c0,0 -0.42857,-1.41385 -0.42857,-2.42857c0,-3.23166 0.42857,-19.85714 0.42857,-19.85714h10.71429c0,0 0.42857,16.51279 0.42857,20c0,1.25944 -0.42857,2.28572 -0.42857,2.28572z" data-paper-data="{&quot;index&quot;:null}" fill="#00b0eb" stroke="none" stroke-width="0" stroke-linecap="butt"/><path d="M59.49714,305.05289c0,0 -0.51909,0.75207 -1.11972,0.81025c-2.01097,0.19481 -6.39449,-0.09596 -7.73742,-0.09596c-0.68406,0 -1.85714,-0.71429 -1.85714,-0.71429c0,0 -0.42857,-1.20849 -0.42857,-2.28571c0,-3.3027 0.42857,-20 0.42857,-20h10.71429c0,0 0.31016,0.30138 0.34999,1.27726c0.17553,4.30017 0.3643,16.43501 0.3643,18.8656c0,0.82139 -0.71429,2.14286 -0.71429,2.14286z" data-paper-data="{&quot;index&quot;:null}" fill="#00b0eb" stroke="none" stroke-width="0" stroke-linecap="butt"/><path d="M58.84691,285.32557c0,0 -1.01251,0.57143 -1.72806,0.57143c-2.77507,0 -20.55945,0.04697 -26.86448,-0.09255c-1.41046,-0.03121 -1.41781,0.09481 -1.97503,-0.47888c-0.55722,-0.57369 -0.42857,-1.18184 -0.42857,-1.99573c0,-4.88351 0.42857,-50.70697 0.42857,-50.70697h30.56757c0,0 0.57143,44.24265 0.57143,49.99268c0,1.18252 -0.57143,2.71001 -0.57143,2.71001z" data-paper-data="{&quot;index&quot;:null}" fill="url(#color-1)" stroke="none" stroke-width="0" stroke-linecap="butt"/><path d="M58.74647,232.64673l-0.14285,8.42857l-6,-7.85715z" data-paper-data="{&quot;index&quot;:null}" fill="#000000" stroke="#ffffff" stroke-width="0" stroke-linecap="round"/><path d="M76.23881,230.51475c-1.58828,1.6027 -2.93234,2.18097 -5.23216,2.30248c-11.53024,0.60915 -45.3223,0.33265 -53.79487,0.33265c-3.62551,0 -4.52493,-0.72327 -6.32433,-2.63513c-1.79939,-1.91185 -2.1081,-3.63344 -2.1081,-6.32432c0,-6.60889 -1.4467,-35.01693 -0.85446,-48.50087c0.19654,-4.47479 0.44956,-5.2228 2.53399,-7.12269c2.08443,-1.8999 4.33414,-1.8224 7.27992,-1.8224c7.42847,0 38.85407,-1.33015 52.14186,-0.77366c3.60091,0.15081 4.45787,0.93654 6.35814,2.88178c1.90028,1.94525 2.63514,3.17333 2.63514,6.32432c0,7.70065 0.30941,38.86842 -0.31587,50.02031c-0.13155,2.34618 -0.73099,3.71483 -2.31927,5.31753z" data-paper-data="{&quot;index&quot;:null}" fill="#ffd38a" stroke="none" stroke-width="0" stroke-linecap="butt"/><path d="M63.06313,196.18367c-3.45178,0 -6.25,-2.79822 -6.25,-6.25c0,-3.45178 2.79822,-6.25 6.25,-6.25c3.45178,0 6.25,2.79822 6.25,6.25c0,3.45178 -2.79822,6.25 -6.25,6.25z" data-paper-data="{&quot;index&quot;:null}" fill="#000000" stroke="none" stroke-width="0.5" stroke-linecap="butt"/><path d="M75.71177,220.50123c0,0 -3.99004,0.88774 -5.5762,0.30336c-3.46592,-1.27692 -14.45082,-7.68174 -14.45082,-7.68174" data-paper-data="{&quot;index&quot;:null}" fill="none" stroke="#000000" stroke-width="2.5" stroke-linecap="round"/><path d="M27.78286,287.19577v-4.71429h31.71429v4.71429z" data-paper-data="{&quot;index&quot;:null}" fill="#00b0eb" stroke="none" stroke-width="0" stroke-linecap="butt"/><path d="M78.77614,170.75096c0,4.6235 -16.02629,8.37158 -35.79572,8.37158c-19.76943,0 -35.79572,-3.74808 -35.79572,-8.37158c0,-4.6235 16.02629,-8.37158 35.79572,-8.37158c19.76943,0 35.79572,3.74808 35.79572,8.37158z" fill="#000000" stroke="none" stroke-width="0" stroke-linecap="butt"/><text transform="translate(21.42181,134.72046) scale(0.5,0.5)" font-size="40" xml:space="preserve" fill="#fff500" fill-rule="nonzero" stroke="none" stroke-width="1" stroke-linecap="butt" stroke-linejoin="miter" stroke-miterlimit="10" stroke-dasharray="" stroke-dashoffset="0" font-family="Sans Serif" font-weight="normal" text-anchor="start" style="mix-blend-mode: normal"><tspan x="0" dy="0">V.I.P.</tspan></text><text transform="translate(35.24729,141.0911) rotate(89.82588) scale(0.5,0.5)" font-size="40" xml:space="preserve" fill="#fff500" fill-rule="nonzero" stroke="none" stroke-width="1" stroke-linecap="butt" stroke-linejoin="miter" stroke-miterlimit="10" stroke-dasharray="" stroke-dashoffset="0" font-family="Sans Serif" font-weight="normal" text-anchor="start" style="mix-blend-mode: normal"><tspan x="0" dy="0">&gt;</tspan></text></g></g></svg>