<svg version="1.1" xmlns="http://www.w3.org/2000/svg" xmlns:xlink="http://www.w3.org/1999/xlink" width="71.16799" height="140.68147" viewBox="0,0,71.16799,140.68147"><g transform="translate(-204.41602,-109.99569)"><g data-paper-data="{&quot;isPaintingLayer&quot;:true}" fill-rule="nonzero" stroke-linecap="butt" stroke-linejoin="miter" stroke-miterlimit="10" stroke-dasharray="" stroke-dashoffset="0" style="mix-blend-mode: normal"><path d="M253.72934,179.76682c0,0 0,-0.53379 0,-3.21267c0,-0.92472 0.5749,-1.86588 1.45251,-1.86588c2.41562,0 7.12468,0 8.45138,0c0.68241,0 1.40981,0.68177 1.40981,1.4049c0,2.44949 0,3.67366 0,3.67366z" data-paper-data="{&quot;index&quot;:null}" fill="#d0ab70" stroke="#000000" stroke-width="2"/><path d="M265.04303,180.22007c0,0 1.09473,2.80341 1.92701,5.65631c0.73963,2.53532 1.22777,5.08761 1.22777,6.08203c0,2.11339 -3.15478,3.89516 -3.15478,4.38191c0,0.72313 -0.7274,1.4049 -1.40981,1.4049c-1.3267,0 -6.03576,0 -8.45138,0c-0.87761,0 -1.4525,-0.94116 -1.4525,-1.86588c0,-0.9646 -3.99606,-3.37 -3.99606,-5.91896c0,-4.52996 3.99606,-9.74029 3.99606,-9.74029z" data-paper-data="{&quot;index&quot;:null}" fill="#d0ab70" stroke="#000000" stroke-width="2"/><path d="M227.77319,180.22009c0,0 3.99606,5.21033 3.99606,9.74029c0,2.54896 -3.99606,4.95436 -3.99606,5.91896c0,0.92472 -0.57489,1.86588 -1.4525,1.86588c-2.41562,0 -7.12468,0 -8.45138,0c-0.68241,0 -1.40981,-0.68177 -1.40981,-1.4049c0,-0.48675 -3.15478,-2.26852 -3.15478,-4.38191c0,-0.99442 0.48814,-3.54671 1.22777,-6.08203c0.83228,-2.8529 1.92701,-5.65631 1.92701,-5.65631z" data-paper-data="{&quot;index&quot;:null}" fill="#d0ab70" stroke="#000000" stroke-width="2"/><path d="M216.4595,179.76683c0,0 0,-1.22417 0,-3.67366c0,-0.72313 0.7274,-1.4049 1.40981,-1.4049c1.3267,0 6.03576,0 8.45138,0c0.87761,0 1.45251,0.94116 1.45251,1.86588c0,2.67888 0,3.21267 0,3.21267z" data-paper-data="{&quot;index&quot;:null}" fill="#d0ab70" stroke="#000000" stroke-width="2"/><path d="M221.5225,186.15282c0.75,0 0.75,0.75 0.75,0.75l-0.01786,0.04762c0.25894,1.1891 0.22921,2.17475 0.11993,3.38538c0,0 -0.0679,0.74692 -0.81482,0.67902c-0.74692,-0.0679 -0.67902,-0.81482 -0.67902,-0.81482c0.09734,-1.06275 0.14597,-1.88539 -0.09038,-2.92418l-0.01785,-0.37302c0,0 0,-0.75 0.75,-0.75z" data-paper-data="{&quot;index&quot;:null}" fill-opacity="0.16129" fill="#000000" stroke="none" stroke-width="0.5"/><path d="M215.35444,191.34389c0.72761,-0.1819 0.90951,0.5457 0.90951,0.5457l0.06691,0.3071c0.31548,0.73612 0.63095,1.47223 0.94643,2.20835c0,0 0.29544,0.68936 -0.39392,0.9848c-0.68936,0.29544 -0.9848,-0.39392 -0.9848,-0.39392c-0.31548,-0.73612 -0.63096,-1.47223 -0.94644,-2.20835l-0.14341,-0.53418c0,0 -0.1819,-0.72761 0.5457,-0.90951z" data-paper-data="{&quot;index&quot;:null}" fill-opacity="0.16129" fill="#000000" stroke="none" stroke-width="0.5"/><path d="M218.02017,182.16379c0.72115,0.20604 0.5151,0.92718 0.5151,0.92718l-0.20698,0.72407c-0.06906,0.2764 -0.13813,0.55279 -0.20719,0.82918c0,0 -0.18191,0.72761 -0.90951,0.5457c-0.72761,-0.1819 -0.5457,-0.90951 -0.5457,-0.90951c0.07115,-0.28446 0.1423,-0.56891 0.21345,-0.85337l0.21365,-0.74816c0,0 0.20604,-0.72114 0.92719,-0.5151z" data-paper-data="{&quot;index&quot;:null}" fill-opacity="0.16129" fill="#000000" stroke="none" stroke-width="0.5"/><path d="M255.48043,229.02554c0,0 -1.01251,0.57143 -1.72806,0.57143c-2.77507,0 -20.55945,0.04697 -26.86448,-0.09255c-1.41046,-0.03121 -1.41781,0.09481 -1.97503,-0.47888c-0.55722,-0.57369 -0.42857,-1.18184 -0.42857,-1.99573c0,-4.88351 0.42857,-50.70697 0.42857,-50.70697h30.56757c0,0 0.57143,44.24265 0.57143,49.99268c0,1.18252 -0.57143,2.71001 -0.57143,2.71001z" data-paper-data="{&quot;index&quot;:null}" fill="#4e4e4e" stroke="#000000" stroke-width="2"/><path d="M272.87233,174.67571c-1.58828,1.6027 -2.93234,2.18097 -5.23216,2.30248c-11.53024,0.60915 -45.3223,0.33265 -53.79487,0.33265c-3.62551,0 -4.52493,-0.72327 -6.32433,-2.63513c-1.79939,-1.91185 -2.1081,-3.63344 -2.1081,-6.32432c0,-6.60889 -1.4467,-35.01693 -0.85446,-48.50087c0.19654,-4.47479 0.44956,-5.2228 2.53399,-7.12269c2.08443,-1.8999 4.33414,-1.8224 7.27992,-1.8224c7.42847,0 38.85407,-1.33015 52.14186,-0.77366c3.60091,0.15081 4.45787,0.93654 6.35814,2.88178c1.90028,1.94525 2.63514,3.17333 2.63514,6.32432c0,7.70065 0.30941,38.86842 -0.31587,50.02031c-0.13155,2.34618 -0.73099,3.71483 -2.31927,5.31753z" data-paper-data="{&quot;index&quot;:null}" fill="#272727" stroke="none" stroke-width="0"/><path d="M224.41638,231.35673v-4.71429h31.71429l0.45139,4.71429c0,0 0.52744,9.61455 0.14068,15.74878c-0.04127,0.65453 -0.11403,1.85644 -0.9935,2.09592c-0.40038,0.10902 -2.40641,0.66869 -4.16909,0.75434c-2.10915,0.10249 -2.63843,0.05747 -4.2818,-0.27861c-1.64337,-0.33608 -2.1104,-0.7191 -2.16018,-1.03881c-0.45834,-2.94401 0.25793,-17.28161 0.25793,-17.28161h-10.12393c0,0 0.36913,11.61381 0.19788,15.76436c-0.03726,0.90303 0.16108,1.00582 -0.19788,1.45277c-0.35896,0.44695 -0.93286,0.80472 -1.67336,0.87718c-0.7405,0.07246 -8.17791,0.46674 -8.52716,-0.77412c-0.90557,-3.21741 -0.63527,-17.32019 -0.63527,-17.32019z" data-paper-data="{&quot;index&quot;:null}" fill="#0023af" stroke="#000000" stroke-width="2"/><path d="M260.73003,186.90282l-0.01785,0.37302c-0.23635,1.03879 -0.18772,1.86143 -0.09038,2.92418c0,0 0.0679,0.74692 -0.67902,0.81482c-0.74692,0.0679 -0.81482,-0.67902 -0.81482,-0.67902c-0.10928,-1.21063 -0.13901,-2.19628 0.11993,-3.38538l-0.01786,-0.04762c0,0 0,-0.75 0.75,-0.75c0.75,0 0.75,0.75 0.75,0.75z" data-paper-data="{&quot;index&quot;:null}" fill-opacity="0.16129" fill="#000000" stroke="none" stroke-width="0.5"/><path d="M266.14811,191.34388c0.7276,0.1819 0.5457,0.90951 0.5457,0.90951l-0.14341,0.53418c-0.31548,0.73612 -0.63096,1.47223 -0.94644,2.20835c0,0 -0.29544,0.68936 -0.9848,0.39392c-0.68936,-0.29544 -0.39392,-0.9848 -0.39392,-0.9848c0.31548,-0.73612 0.63095,-1.47223 0.94643,-2.20835l0.06691,-0.3071c0,0 0.1819,-0.7276 0.90951,-0.5457z" data-paper-data="{&quot;index&quot;:null}" fill-opacity="0.16129" fill="#000000" stroke="none" stroke-width="0.5"/><path d="M263.48236,182.16378c0.72115,-0.20604 0.92719,0.5151 0.92719,0.5151l0.21365,0.74816c0.07115,0.28446 0.1423,0.56891 0.21345,0.85337c0,0 0.18191,0.72761 -0.5457,0.90951c-0.7276,0.18191 -0.90951,-0.5457 -0.90951,-0.5457c-0.06906,-0.27639 -0.13813,-0.55278 -0.20719,-0.82918l-0.20698,-0.72407c0,0 -0.20605,-0.72114 0.5151,-0.92718z" data-paper-data="{&quot;index&quot;:null}" fill-opacity="0.16129" fill="#000000" stroke="none" stroke-width="0.5"/></g></g></svg>